<svg xmlns="http://www.w3.org/2000/svg" viewBox="0 0 128 128">
  <path fill-rule="evenodd" clip-rule="evenodd" fill="#3A4D54" d="M20 96.9v-8.1c0-1.1.7-1.9 1.8-1.9h.3c1.1 0 1.8.9 1.8 1.9v17c0 4.1-2 7.7-5.5 9.6-1.3.7-2.7 1.3-4.1 1.8-.8.3-1.6-.4-1.6-1.2v-.3c0-.5.3-1 .7-1.2 1.2-.5 2.3-1.1 3.3-1.8 2.2-1.5 3.3-3.9 3.3-6.6v-.2zM33 96.9v-8.1c0-1.1.7-1.9 1.8-1.9h.3c1.1 0 1.8.9 1.8 1.9v8.1c0 1.1-.7 1.9-1.8 1.9h-.3c-1.1 0-1.8-.8-1.8-1.9zm-12.3-8.1c0-1.1.7-1.9 1.8-1.9h.3c1.1 0 1.8.9 1.8 1.9v8.1c0 1.1-.7 1.9-1.8 1.9h-.3c-1.1 0-1.8-.8-1.8-1.9v-8.1zm-12.2 0c0-1.1.7-1.9 1.8-1.9h.3c1.1 0 1.8.9 1.8 1.9v8.1c0 1.1-.7 1.9-1.8 1.9h-.3c-1.1 0-1.8-.8-1.8-1.9v-8.1z"/>
  <path fill="#00AADA" d="M110.2 37.9h4.7v4.8h-4.7z"/>
  <path fill="#00AADA" d="M110.2 37.9h4.7v4.8h-4.7zM104.2 37.9h4.7v4.8h-4.7z"/>
  <path fill="#00AADA" d="M104.2 37.9h4.7v4.8h-4.7zM98.2 37.9h4.7v4.8h-4.7z"/>
  <path fill="#00AADA" d="M98.2 37.9h4.7v4.8h-4.7zM98.2 32.1h4.7v4.8h-4.7z"/>
  <path fill="#00AADA" d="M98.2 32.1h4.7v4.8h-4.7zM92.2 32.1h4.7v4.8h-4.7z"/>
  <path fill="#00AADA" d="M92.2 32.1h4.7v4.8h-4.7zM92.2 26.3h4.7v4.8h-4.7z"/>
  <path fill="#00AADA" d="M92.2 26.3h4.7v4.8h-4.7zM86.2 26.3h4.7v4.8h-4.7z"/>
  <path fill="#00AADA" d="M86.2 26.3h4.7v4.8h-4.7zM104.2 32.1h4.7v4.8h-4.7z"/>
  <path fill="#00AADA" d="M104.2 32.1h4.7v4.8h-4.7zM110.2 32.1h4.7v4.8h-4.7z"/>
  <path fill="#00AADA" d="M110.2 32.1h4.7v4.8h-4.7zM116.2 32.1h4.7v4.8h-4.7z"/>
  <path fill="#00AADA" d="M116.2 32.1h4.7v4.8h-4.7zM116.2 26.3h4.7v4.8h-4.7z"/>
  <path fill="#00AADA" d="M116.2 26.3h4.7v4.8h-4.7zM122.3 26.3h4.7v4.8h-4.7z"/>
  <path fill="#00AADA" d="M122.3 26.3h4.7v4.8h-4.7zM122.3 20.5h4.7v4.8h-4.7z"/>
  <path fill="#00AADA" d="M122.3 20.5h4.7v4.8h-4.7z"/>
  <path fill-rule="evenodd" clip-rule="evenodd" fill="#00AADA" d="M117.8 60.1c-1.2-7.9-6.5-14.1-13.5-17.9l-2.7 2.1c5.3 3.5 9.3 8.5 11.3 14.5 2.4-.7 4.4-1.2 6.4-1.7.8-.2 1.3-.7 1.3-1.5 0-1.1-.5-1.9-1.5-2.1-1.1-.2-2.2-.4-3.3-.6v-2.4l2 1.6z"/>
  <path fill-rule="evenodd" clip-rule="evenodd" fill="#28B9EB" d="M118.8 57.7c-.2 1.3-1.2 2.2-2.3 2.5-8.5 2.4-17.2 2.5-26 .2-11.8-3.1-22.1-9.5-28.3-21.3-.6-1.1-.4-2.3.4-3.2.8-.9 2.1-1.1 3.2-.5 1.1.6 2.1 1.3 3.1 2.1 4.7-9.9 14.2-15.9 24.9-15.9 15.5 0 28.1 12.6 28.1 28.1h-3.1z"/>
  <path fill-rule="evenodd" clip-rule="evenodd" fill="#028BB8" d="M42.9 38.8h3.1v3.1h-3.1zM49.1 38.8h3.1v3.1h-3.1zM55.4 38.8h3.1v3.1h-3.1zM61.6 38.8h3.1v3.1h-3.1zM67.9 38.8H71v3.1h-3.1zM74.1 38.8h3.1v3.1h-3.1zM80.4 38.8h3.1v3.1h-3.1zM86.6 38.8h3.1v3.1h-3.1zM49.1 32.6h3.1v3.1h-3.1zM55.4 32.6h3.1v3.1h-3.1zM61.6 32.6h3.1v3.1h-3.1zM67.9 32.6H71v3.1h-3.1zM74.1 32.6h3.1v3.1h-3.1zM80.4 32.6h3.1v3.1h-3.1zM86.6 32.6h3.1v3.1h-3.1zM55.4 26.3h3.1v3.1h-3.1zM61.6 26.3h3.1v3.1h-3.1zM67.9 26.3H71v3.1h-3.1zM74.1 26.3h3.1v3.1h-3.1zM80.4 26.3h3.1v3.1h-3.1zM61.6 20.1h3.1v3.1h-3.1zM67.9 20.1H71v3.1h-3.1zM74.1 20.1h3.1v3.1h-3.1z"/>
</svg>