<svg xmlns="http://www.w3.org/2000/svg" viewBox="0 0 128 128">
  <path fill="#231F20" d="M63.4 100.5c-15.8 0-28.6-12.8-28.6-28.6S47.6 43.4 63.4 43.4c15.8 0 28.6 12.8 28.6 28.6s-12.8 28.5-28.6 28.5zm0-54.9c-14.5 0-26.3 11.8-26.3 26.3S48.9 98.2 63.4 98.2c14.5 0 26.3-11.8 26.3-26.3S77.9 45.6 63.4 45.6z"/>
  <path fill="#231F20" d="M103.7 128h-2.2c-21.1 0-40.9-8.2-55.8-23.1-14.9-14.9-23.1-34.7-23.1-55.8V2.2c0-.6.5-1.1 1.1-1.1h2.2c21.1 0 40.9 8.2 55.8 23.1 14.9 14.9 23.1 34.7 23.1 55.8v46.9c0 .6-.5 1.1-1.1 1.1zm-79-125.7v46.9c0 20.5 8 39.8 22.5 54.3s33.8 22.5 54.3 22.5h1.1V79.1c0-20.5-8-39.8-22.5-54.3S46.3 2.3 25.8 2.3h-1.1z"/>
  <path fill="#231F20" d="M120.1 128h-2.2c-.6 0-1.1-.5-1.1-1.1V79.1c0-21.1-8.2-40.9-23.1-55.8C78.8 8.4 59 .2 37.9.2h-2.2c-.6 0-1.1.5-1.1 1.1v46.9c0 21.1 8.2 40.9 23.1 55.8 14.9 14.9 34.7 23.1 55.8 23.1h2.2c.6 0 1.1-.5 1.1-1.1v-46.9c0-21.1-8.2-40.9-23.1-55.8-14.9-14.9-34.7-23.1-55.8-23.1h-2.2c-.6 0-1.1.5-1.1 1.1.1.6.6 1.1 1.2 1.1h2.2c20.5 0 39.8 8 54.3 22.5s22.5 33.8 22.5 54.3v45.8h-1.1c-20.5 0-39.8-8-54.3-22.5s-22.5-33.8-22.5-54.3V2.3h1.1c20.5 0 39.8 8 54.3 22.5s22.5 33.8 22.5 54.3v46.9c-.1.5.4 1 1 1z"/>
  <path fill="#231F20" d="M63.4 76.9c-2.7 0-4.9-2.2-4.9-4.9s2.2-4.9 4.9-4.9 4.9 2.2 4.9 4.9-2.2 4.9-4.9 4.9zm0-7.6c-1.5 0-2.7 1.2-2.7 2.7s1.2 2.7 2.7 2.7 2.7-1.2 2.7-2.7-1.2-2.7-2.7-2.7z"/>
  <path fill="#231F20" d="M63.4 66c-.6 0-1.1-.5-1.1-1.1V55c0-.6.5-1.1 1.1-1.1s1.1.5 1.1 1.1v9.9c0 .6-.5 1.1-1.1 1.1z"/>
  <path fill="#231F20" d="M63.4 90.1c-.6 0-1.1-.5-1.1-1.1v-9.9c0-.6.5-1.1 1.1-1.1s1.1.5 1.1 1.1V89c0 .6-.5 1.1-1.1 1.1z"/>
</svg>