<svg xmlns="http://www.w3.org/2000/svg" viewBox="0 0 128 128">
  <path fill-rule="evenodd" clip-rule="evenodd" fill="#439934" d="M88.038 42.812c1.605 4.643 2.761 9.383 3.141 14.296.472 6.095.256 12.147-1.029 18.142-.035.165-.109.32-.164.48-.403.001-.814-.049-1.208.012-3.329.523-6.655 1.065-9.981 1.604-3.438.557-6.881 1.092-10.313 1.687-1.216.21-2.721-.041-3.212 1.641-.014.046-.154.054-.235.08l.166-10.051-.169-24.252 1.602-.275c2.62-.429 5.24-.864 7.862-1.281 3.129-.497 6.261-.98 9.392-1.465 1.381-.215 2.764-.412 4.148-.618z"/>
  <path fill-rule="evenodd" clip-rule="evenodd" fill="#45A538" d="M61.729 110.054c-1.69-1.453-3.439-2.842-5.059-4.37-8.717-8.222-15.093-17.899-18.233-29.566-.865-3.211-1.442-6.474-1.627-9.792-.13-2.322-.318-4.665-.154-6.975.437-6.144 1.325-12.229 3.127-18.147l.099-.138c.175.233.427.439.516.702 1.759 5.18 3.505 10.364 5.242 15.551 5.458 16.3 10.909 32.604 16.376 48.9.107.318.384.579.583.866l-.87 2.969z"/>
  <path fill-rule="evenodd" clip-rule="evenodd" fill="#46A037" d="M88.038 42.812c-1.384.206-2.768.403-4.149.616-3.131.485-6.263.968-9.392 1.465-2.622.417-5.242.852-7.862 1.281l-1.602.275-.012-1.045c-.053-.859-.144-1.717-.154-2.576-.069-5.478-.112-10.956-.18-16.434-.042-3.429-.105-6.857-.175-10.285-.043-2.13-.089-4.261-.185-6.388-.052-1.143-.236-2.28-.311-3.423-.042-.657.016-1.319.029-1.979.817 1.583 1.616 3.178 2.456 4.749 1.327 2.484 3.441 4.314 5.344 6.311 7.523 7.892 12.864 17.068 16.193 27.433z"/>
  <path fill-rule="evenodd" clip-rule="evenodd" fill="#409433" d="M65.036 80.753c.081-.026.222-.034.235-.08.491-1.682 1.996-1.431 3.212-1.641 3.432-.594 6.875-1.13 10.313-1.687 3.326-.539 6.652-1.081 9.981-1.604.394-.062.805-.011 1.208-.012-.622 2.22-1.112 4.488-1.901 6.647-.896 2.449-1.98 4.839-3.131 7.182a49.142 49.142 0 01-6.353 9.763c-1.919 2.308-4.058 4.441-6.202 6.548-1.185 1.165-2.582 2.114-3.882 3.161l-.337-.23-1.214-1.038-1.256-2.753a41.402 41.402 0 01-1.394-9.838l.023-.561.171-2.426c.057-.828.133-1.655.168-2.485.129-2.982.241-5.964.359-8.946z"/>
  <path fill-rule="evenodd" clip-rule="evenodd" fill="#4FAA41" d="M65.036 80.753c-.118 2.982-.23 5.964-.357 8.947-.035.83-.111 1.657-.168 2.485l-.765.289c-1.699-5.002-3.399-9.951-5.062-14.913-2.975-8.848-5.988-17.682-8.862-26.563-1.203-3.72-2.496-7.417-3.636-11.157-.382-1.25-.549-2.6-.912-3.867-.841-2.913.059-5.542.985-8.211.291-.843.562-1.703.833-2.558.361-1.156.702-2.32 1.055-3.48.2.147.384.302.597.434 1.939 1.203 3.88 2.405 5.824 3.603 3.251 1.997 6.463 4.053 9.763 5.978 2.897 1.688 5.894 3.208 8.846 4.802 1.8.974 3.595 1.961 5.39 2.944 1.003.54 2.015 1.067 3.005 1.637.398.229.697.625 1.042.946.134.126.262.259.392.389l.289.22z"/>
  <path fill-rule="evenodd" clip-rule="evenodd" fill="#4AA73C" d="M43.155 32.227c.21.445.368.929.612 1.35.917 1.578 1.837 3.155 2.827 4.678 1.939 2.987 3.974 5.897 5.966 8.844 1.49 2.201 2.974 4.41 4.528 6.568 1.83 2.543 3.752 5.016 5.648 7.51 1.098 1.449 2.312 2.8 3.387 4.273.37.506.356 1.241.66 1.774.138.243.521.363.787.543l.064.438c-.284.206-.559.426-.851.617-1.919 1.257-3.849 2.496-5.769 3.749-3.435 2.242-6.866 4.492-10.303 6.731-.903.586-1.819 1.149-2.739 1.703-.302.179-.662.163-.996.24l-.244-.331c-.284-.757-.568-1.515-.909-2.42a12.306 12.306 0 001.847-1.003c1.782-1.09 3.539-2.22 5.324-3.306 1.313-.801 2.678-1.537 4.001-2.334.769-.465 1.495-.996 2.242-1.495.552-.37 1.119-.72 1.62-1.156.22-.19.265-.631.334-.975.069-.344.333-.718.163-1.002-.213-.355-.529-.731-.916-.92-.9-.438-1.856-.709-2.797-1.039-1.182-.416-2.358-.859-3.542-1.268-.05-.017-.13.046-.207.077l-1.264-2.601c-2.099-4.056-4.509-7.925-7.496-11.471-3.088-3.667-6.334-7.183-10.164-10.083-.586-.443-1.055-1.036-1.612-1.527-.269-.237-.607-.404-.912-.606l.693-.905z"/>
  <path fill-rule="evenodd" clip-rule="evenodd" fill="#57AE47" d="M65.202 70.702l-.289-.22c-.13-.13-.258-.263-.392-.389-.345-.321-.644-.717-1.042-.946-1.744-.942-3.496-1.867-5.253-2.785-1.453-.761-2.956-1.422-4.381-2.233-2.451-1.392-4.849-2.87-7.276-4.301-1.343-.794-2.687-1.587-4.04-2.362-.958-.546-1.957-1.027-2.88-1.627-1.087-.706-2.105-1.519-3.165-2.269-.868-.614-1.755-1.202-2.628-1.81l-.354-.219c.162-.019.311-.113.453-.067 1.095.358 2.204.652 3.268 1.075 3.246 1.291 6.46 2.655 9.683 4.001 1.553.649 3.074 1.377 4.642 1.985 1.221.472 2.482.837 3.731 1.234.855.272 1.711.542 2.57.8 1.726.51 3.457 1.003 5.182 1.515 1.542.459 3.08.931 4.622 1.389.666.198 1.379.271 1.999.587z"/>
  <path fill-rule="evenodd" clip-rule="evenodd" fill="#60B24F" d="M65.021 45.404c-.248.42-.428.851-.695 1.234-.405.582-.885 1.106-1.337 1.651-.31.373-.597.769-.922 1.132-2.309 2.592-4.929 4.847-7.737 6.9-2.902 2.121-5.915 4.074-8.872 6.111-.12.083-.235.173-.354.259l-.128.104c-.44-.898-.879-1.796-1.328-2.708.293-.048.476-.217.691-.348.15-.092.305-.175.458-.262.891-.511 1.783-1.021 2.672-1.533 1.234-.71 2.469-1.419 3.704-2.13.034-.02.066-.042.1-.061 2.344-1.313 4.524-2.866 6.517-4.686 1.349-1.231 2.648-2.513 3.972-3.77.348-.331.699-.661 1.111-.99z"/>
  <path fill-rule="evenodd" clip-rule="evenodd" fill="#A9AA88" d="M62.267 107.317c-.038-1.017-.104-2.033-.151-3.049-.47-10.114-.964-20.229-1.389-30.348-.078-1.861-.079-3.729-.111-5.594-.003-.187.033-.377.05-.566l.761-.29.169 2.426-.023.561c.136 3.62.397 7.222 1.394 9.838z"/>
  <path fill-rule="evenodd" clip-rule="evenodd" fill="#B6B598" d="M62.267 107.317c.495-1.054.584-2.221.66-3.367.384-5.821-.081-11.635-.206-17.453-.133-6.139-.257-12.278-.384-18.417-.057-2.779-.138-5.556-.172-8.336-.003-.22.033-.442.05-.664l.166 10.051-.169 24.252-.169 13.934z"/>
  <path fill-rule="evenodd" clip-rule="evenodd" fill="#C2C1A7" d="M63.85 111.525c-.871-.571-1.75-1.133-2.615-1.711-.079-.052-.203-.041-.306-.062l.126-2.836.169-13.934.169-24.252.154 6.388c.088 3.435.176 6.87.273 10.305.193 7.064.378 14.128.624 21.189.124 3.535.347 7.065.396 10.601.001.145-.1.338-.18.482z"/>
  <path fill-rule="evenodd" clip-rule="evenodd" fill="#CECDB7" d="M63.85 111.525c.145 2.492.235 4.987.368 7.480.019.36-.066.725-.102 1.088l-.732-.459-.337-.23c.072-.56.126-1.122.2-1.682.199-1.513.434-3.022.64-4.534.057-.42.102-.843.163-1.262z"/>
  <path fill-rule="evenodd" clip-rule="evenodd" fill="#DBDAC7" d="M63.384 119.634c.045.655.085 1.31.143 1.963.068.772.149 1.543.212 2.315.004.059-.123.181-.189.18-.107-.002-.214-.101-.32-.155l-.201-.127c-.265-2.619-.49-5.242-.756-8.032z"/>
  <path fill-rule="evenodd" clip-rule="evenodd" fill="#EBE9DC" d="M63.384 119.634l-.96-.509-.496-1.031c.491-.542.893-1.144 1.304-1.75.172-.25.363-.486.547-.727l.102 1.088c-.111.664-.233 1.328-.317 1.997-.052.406-.072.82-.108 1.232z"/>
  <path fill-rule="evenodd" clip-rule="evenodd" fill="#CECDB7" d="M61.928 118.094c.168.498.314.873.547 1.54-.138.254-.34.486-.513.73-.513-1.054-.517-1.069-.034-2.27z"/>
  <path fill-rule="evenodd" clip-rule="evenodd" fill="#4FAA41" d="M65.036 80.753c-.621-.316-1.334-.389-1.999-.587-1.542-.458-3.08-.93-4.622-1.389-1.725-.512-3.456-1.005-5.182-1.515-.859-.258-1.716-.528-2.57-.8-1.248-.397-2.51-.762-3.731-1.234-1.568-.608-3.089-1.336-4.642-1.985-3.223-1.346-6.437-2.71-9.683-4.001-1.064-.423-2.172-.717-3.268-1.075-.142-.046-.291.048-.453.067a6.418 6.418 0 00-.322-.156c-.789-.362-1.58-.72-2.369-1.08l.047-.241c.065-.045.181-.096.181-.144.002-.242-.056-.484-.079-.727-.055-.582-.102-1.165-.147-1.748-.16-.219-.236-.461-.235-.7.002-.239.001-.477.001-.716.111.372.111.372.221.491.961.553 1.92 1.109 2.883 1.659 2.748 1.569 5.502 3.13 8.249 4.7 1.633.933 3.252 1.894 4.9 2.804.664.366 1.408.6 2.119.889.678.278 1.353.571 2.013.883 1.322.63 2.61 1.35 3.99 1.758 7.189 2.137 14.547 3.477 22.008 3.987 1.469.1 2.938.312 4.408.312h.438l.697.696z"/>
</svg>