<svg xmlns="http://www.w3.org/2000/svg" viewBox="0 0 128 128">
  <path fill="#336791" d="M93.809 92.112c.785-6.533.55-7.492 5.416-6.433l1.235.108c3.742.17 8.637-.602 11.513-1.938 6.191-2.873 9.861-7.668 3.758-6.409-13.924 2.873-14.881-1.842-14.881-1.842 14.703-21.815 20.849-49.508 15.543-56.287-14.47-18.489-39.517-9.746-39.936-9.52l-.134.025c-2.751-.571-5.83-.912-9.289-.968-6.301-.104-11.082 1.652-14.709 4.402 0 0-44.683-18.409-42.604 23.151.442 8.841 12.672 66.898 27.26 49.362 5.332-6.412 10.484-11.834 10.484-11.834 2.558 1.699 5.622 2.567 8.834 2.255l.249-.212c-.078.796-.044 1.575.099 2.497-3.757 4.199-2.653 4.936-10.166 6.482-7.602 1.566-3.136 4.355-.221 5.084 3.535.884 11.712 2.136 17.238-5.598l-.22.882c1.474 1.18 1.375 8.477 1.583 13.69.209 5.214.558 10.079 1.621 12.948 1.063 2.868 2.317 10.256 12.191 8.14 8.252-1.764 14.561-4.309 15.136-27.985"></path>
  <path fill="#FFF" d="M75.458 125.256c-4.367 0-7.211-1.689-8.938-3.32-2.607-2.46-3.641-5.629-4.259-7.522l-.267-.79c-1.244-3.358-1.666-8.193-1.916-14.419-.038-.935-.064-1.898-.093-2.919-.021-.747-.047-1.684-.085-2.664a18.8 18.8 0 0 1-4.962 1.568c-3.079.526-6.389.356-9.84-.507-2.435-.609-3.903-1.558-4.612-2.692-.623-.989-.686-2.129-.173-3.139.472-.927 1.415-1.804 2.669-2.462.613-.323 1.306-.6 2.022-.832-1.285-2.204-2.548-5.037-2.593-7.122-.02-.94.149-3.705 4.823-5.423 1.38-.507 3.149-.993 5.006-1.294-1.116-3.992-7.794-29.065-2.002-47.088 1.033-3.204 2.845-5.681 5.389-7.361 2.355-1.555 5.305-2.343 8.752-2.343 2.263 0 4.443.449 6.276 1.227 1.267-.345 4.322-1.028 7.845-1.028 1.991 0 3.862.261 5.557.779 10.649 3.253 15.408 11.274 14.176 23.819-.958 9.777-6.617 31.593-13.398 47.764 3.023 1.137 5.834 1.49 8.612 1.071 3.438-.516 6.241-2.339 8.831-5.445 2.032-2.447 3.553-5.334 3.82-5.953.26-.6.673-.795 1.031-.795.31 0 .616.126.829.356.382.416.421 1.125.098 1.764-.159.312-3.848 7.588-7.549 11.729-3.885 4.346-8.424 6.547-13.477 6.547-.854 0-1.734-.088-2.626-.255 1.454 4.5 3.889 7.395 7.166 8.575 1.033.373 2.231.595 3.666.595.938 0 1.972-.088 3.154-.271 5.969-.927 9.932-3.856 11.06-8.211.249-.965.437-2.103.608-3.387.172-1.296.365-2.766.599-3.99.446-2.347 1.339-3.643 2.841-4.119.599-.19 1.222-.211 1.805-.08 1.411.317 2.376 1.348 2.376 2.543 0 .202-.03.412-.09.622-.528 1.825-1.242 7.24-1.242 7.24-.18 1.297-.48 2.688-.877 4.159-1.106 4.102-3.139 7.243-6.039 9.349-2.883 2.09-6.749 3.152-11.513 3.152-2.89 0-5.408-.392-7.453-1.164-2.045-.773-3.835-1.971-5.316-3.556-2.969-3.171-4.597-7.386-4.853-12.552a32.38 32.38 0 0 1-1.966.125c-5.595 0-9.783-2.115-11.694-5.939-1.292-2.584-1.372-5.146-.239-7.566-1.619.787-3.145 1.656-4.541 2.592-2.819 1.892-4.726 3.949-5.672 6.12-.673 1.55-.763 3.285-.271 5.508.442 2.188 1.413 3.967 2.879 5.323 1.45 1.338 3.282 2.015 5.446 2.015 2.075 0 3.539-.576 4.25-1.67.336-.517.888-.816 1.479-.816.121 0 .243.013.364.039 1.218.259 1.802 1.636 1.259 2.787-1.092 2.314-3.769 3.66-7.352 3.66zm-11.169-33.654c-2.455 0-4.099.423-5.158.87-1.073.452-1.738.945-1.893 1.304-.839 1.922 2.407 5.357 4.355 7.167l.56.519c.324.299.664.588 1.014.865 3.207-3.071 6.196-6.556 8.918-10.394-.254-.064-.527-.124-.815-.178-2.748-.52-4.942-.094-6.981-.153zM74.915 48.991c-5.726 0-9.291 3.108-9.291 8.103 0 11.272 15.311 8.572 15.311 17.956 0 3.562-2.056 5.645-5.769 5.645-5.4 0-7.458-2.756-10.063-6.471-.897-1.273-2.034-.911-2.521.426-.465 1.305-.252 3.468.356 4.553 2.262 4.048 7.748 6.472 12.196 6.472 6.163 0 9.778-3.075 9.778-8.917 0-11.371-15.412-9.127-15.412-18.004 0-2.963 1.694-4.867 5.082-4.867 3.497 0 6.093 1.208 8.384 4.064.693.856 1.895.648 2.283-.45.374-1.07.446-2.785-.019-3.934-1.672-4.158-6.039-4.576-10.315-4.576zm-9.646 30.89c.523-1.851-.438-2.385-1.696-1.381-1.087.869-2.54 2.108-4.301 3.152 1.295 1.783 2.938 3.339 4.874 4.675 1.06-1.767 1.598-4.305 1.123-6.446zm44.244-28.723c2.22.062 4.228.55 4.228 2.221 0 4.094-8.939 14.092-8.939 19.822 0 2.147 1.155 3.055 2.954 3.055 3.036 0 6.226-3.559 7.843-6.868.326-.662.997-.807 1.508-.327.397.377.47 1.036.209 1.62-1.108 2.493-5.198 8.011-9.825 8.011-3.622 0-5.955-1.841-5.955-5.643 0-4.907 8.973-14.647 8.973-19.382 0-2.147-1.531-2.175-3.1-2.175-4.674 0-9.147 6.661-10.209 11.267-.107.464-.37.546-.648.351-.27-.186-.374-.566-.31-.957.873-5.336 5.357-11.042 13.271-10.995zm-32.679-2.222c1.04 0 1.982.241 2.492.241.445 0 .695-.311.74-.788.045-.466-.198-.909-.77-.909-.645 0-1.571.153-2.507.153-1.172 0-2.013-.196-2.013-.975 0-.918 1.277-1.153 2.31-1.153 1.926 0 3.98.871 3.98 3.315 0 1.337-.582 2.625-2.276 2.625-1.169 0-3.309-.479-4.271-.479-.772 0-1.045.495-1.045.909 0 .385.251.821.772.821.507 0 1.537-.241 2.588-.241z"></path>
</svg>