<svg xmlns="http://www.w3.org/2000/svg" viewBox="0 0 128 128">
  <path fill="#6DB33F" d="M116.452 6.643a59.104 59.104 0 0 1-6.837 12.136A64.249 64.249 0 0 0 64 16C33.787 16 8.914 40.115 8.012 70.045a64.236 64.236 0 0 0 51.1 62.526 64.948 64.948 0 0 0 13.062 1.324A64.237 64.237 0 0 0 120 70.045a63.769 63.769 0 0 0-3.548-20.86 64.626 64.626 0 0 1-6.344 10.288c-1.072 1.49-2.051 2.746-2.931 3.775a62.22 62.22 0 0 1-1.666 1.9 36.254 36.254 0 0 1-1.027 1.06 26.258 26.258 0 0 1-.774.739c-.3.274-.511.459-.633.568l-.9.072a58.32 58.32 0 0 0-1.796-6.506 59.533 59.533 0 0 0-7.333-15.483 37.986 37.986 0 0 1 7.837-1.35 37.414 37.414 0 0 1 6.068.014 36.691 36.691 0 0 1 5.965.848 37.156 37.156 0 0 1 5.62 1.616 38.012 38.012 0 0 1 5.064 2.295 36.269 36.269 0 0 1 4.293 2.887 36.878 36.878 0 0 1 3.337 3.02c.442.458.872.925 1.291 1.4l.01-.012a52.196 52.196 0 0 0-11.238-13.362 51.737 51.737 0 0 0-14.954-9.158 53.356 53.356 0 0 0-17.961-4.048 53.96 53.96 0 0 0-18.697 2.237 53.357 53.357 0 0 0-16.36 8.539 52.196 52.196 0 0 0-12.237 13.542 53.08 53.08 0 0 0-6.916 17.198 53.517 53.517 0 0 0-.438 19.342 52.86 52.86 0 0 0 5.949 17.651 53.802 53.802 0 0 0 11.534 14.058 53.384 53.384 0 0 0 15.808 9.369 52.592 52.592 0 0 0 18.684 3.365 53.175 53.175 0 0 0 19.03-3.963 54.069 54.069 0 0 0 16.096-10.78 52.57 52.57 0 0 0 11.446-16.387 52.386 52.386 0 0 0 5.136-20.247 52.973 52.973 0 0 0-1.924-19.084 53.679 53.679 0 0 0-8.07-17.252 60.949 60.949 0 0 1 5.058-4.504 60.059 60.059 0 0 1 6.675-4.576 59.484 59.484 0 0 1 7.935-3.894 60.156 60.156 0 0 1 8.845-2.498 60.708 60.708 0 0 1 9.417-.841 59.824 59.824 0 0 1 9.595.923c.309.063.618.129.927.198a47.865 47.865 0 0 0-4.253-7.178 47.414 47.414 0 0 0-5.3-6.372 47.834 47.834 0 0 0-6.474-5.38 49.72 49.72 0 0 0-7.477-4.113 49.793 49.793 0 0 0-7.968-2.563 48.35 48.35 0 0 0-8.917-.738 47.865 47.865 0 0 0-8.96 1.014 48.387 48.387 0 0 0-8.505 2.707 47.804 47.804 0 0 0-7.613 4.244 48.822 48.822 0 0 0-6.589 5.53 49.213 49.213 0 0 0-5.358 6.585 48.04 48.04 0 0 0-3.9 7.328 47.166 47.166 0 0 0-2.224 7.781 48.294 48.294 0 0 0-.342 7.886z"/>
  <path fill="#6DB33F" d="M118.499 52.114a37.226 37.226 0 0 0-7.908-11.994 37.888 37.888 0 0 0-12.018-8.042 38.241 38.241 0 0 0-14.582-3.2 38.293 38.293 0 0 0-14.65 2.975 37.888 37.888 0 0 0-12.122 7.882 37.226 37.226 0 0 0-8.139 11.834 36.786 36.786 0 0 0-2.913 14.815 36.346 36.346 0 0 0 2.9 14.766 37.166 37.166 0 0 0 8.139 11.866 37.95 37.95 0 0 0 12.122 7.93 38.241 38.241 0 0 0 14.65 2.99 38.293 38.293 0 0 0 14.582-3.215 37.827 37.827 0 0 0 12.018-8.058 37.166 37.166 0 0 0 7.908-11.994 36.346 36.346 0 0 0 2.847-14.766 36.786 36.786 0 0 0-2.834-14.79zm-1.9 14.815a35.5 35.5 0 0 1-2.768 13.815 35.38 35.38 0 0 1-7.566 11.2 35.992 35.992 0 0 1-11.358 7.504 36.297 36.297 0 0 1-13.713 2.975 36.347 36.347 0 0 1-13.765-2.738 36.053 36.053 0 0 1-11.438-7.344 35.32 35.32 0 0 1-7.672-11.04 34.56 34.56 0 0 1-2.742-13.815 34.95 34.95 0 0 1 2.742-13.815 35.38 35.38 0 0 1 7.672-11.2 36.053 36.053 0 0 1 11.438-7.504 36.347 36.347 0 0 1 13.765-2.738 36.297 36.297 0 0 1 13.713 2.975 35.992 35.992 0 0 1 11.358 7.344 35.32 35.32 0 0 1 7.566 11.04 34.95 34.95 0 0 1 2.768 13.342z"/>
  <path fill="#6DB33F" d="M82.565 61.29c1.512.872 3.5 1.773 5.968 2.704a54.71 54.71 0 0 0 7.9 2.303 49.83 49.83 0 0 0 8.72 1.2 42.922 42.922 0 0 0 8.432-.61c-.4.61-.822 1.22-1.245 1.83a41.503 41.503 0 0 1-1.324 1.83 42.344 42.344 0 0 1-8.038 8.13 41.761 41.761 0 0 1-9.9 5.554 42.328 42.328 0 0 1-11.306 2.738 41.819 41.819 0 0 1-11.68-.533 42.77 42.77 0 0 1-10.9-3.732 41.69 41.69 0 0 1-9.101-6.506 42.343 42.343 0 0 1-6.68-8.72 41.248 41.248 0 0 1-3.732-10.288 41.69 41.69 0 0 1-.61-11.04 42.328 42.328 0 0 1 2.498-10.9 41.761 41.761 0 0 1 5.554-9.9 42.344 42.344 0 0 1 8.13-8.038c.61-.4 1.22-.822 1.83-1.166.61-.4 1.22-.822 1.83-1.166a42.922 42.922 0 0 0-.61 8.432 49.83 49.83 0 0 0 1.2 8.72 54.71 54.71 0 0 0 2.303 7.9c.931 2.468 1.83 4.456 2.704 5.968-1.166 1.83-2.303 3.732-3.5 5.712a54.71 54.71 0 0 0-2.975 6.506 49.83 49.83 0 0 0-2.063 7.344 43.127 43.127 0 0 0-.763 8.13 42.922 42.922 0 0 0 .763 8.13 49.83 49.83 0 0 0 2.063 7.344 54.71 54.71 0 0 0 2.975 6.506c1.166 1.98 2.303 3.882 3.5 5.712a54.71 54.71 0 0 0-5.712 3.5 49.83 49.83 0 0 0-6.506 2.975 54.71 54.71 0 0 0-7.344 2.063 43.127 43.127 0 0 0-8.13.763 42.922 42.922 0 0 0-8.13-.763 49.83 49.83 0 0 0-7.344-2.063 54.71 54.71 0 0 0-6.506-2.975c-1.98-1.166-3.882-2.303-5.712-3.5 1.166-1.83 2.303-3.732 3.5-5.712a54.71 54.71 0 0 0 2.975-6.506 49.83 49.83 0 0 0 2.063-7.344 43.127 43.127 0 0 0 .763-8.13 42.922 42.922 0 0 0-.763-8.13 49.83 49.83 0 0 0-2.063-7.344 54.71 54.71 0 0 0-2.975-6.506c-1.166-1.98-2.303-3.882-3.5-5.712 1.83-1.166 3.732-2.303 5.712-3.5a54.71 54.71 0 0 0 6.506-2.975 49.83 49.83 0 0 0 7.344-2.063 43.127 43.127 0 0 0 8.13-.763 42.922 42.922 0 0 0 8.13.763 49.83 49.83 0 0 0 7.344 2.063 54.71 54.71 0 0 0 6.506 2.975c1.98 1.166 3.882 2.303 5.712 3.5z"/>
</svg>